<svg xmlns="http://www.w3.org/2000/svg" width="3000" height="500" viewBox="0 0 3000 500"><rect width="100%" height="100%" fill="#DDDDDD"/><path fill="#999999" d="m888 212.875-16.25-2.88q1.87-13 7.25-22.81 5.37-9.81 13.44-16.37 8.06-6.57 18.5-9.88 10.43-3.31 22.43-3.31 12.5 0 22.57 3.56 10.06 3.56 17.18 9.88 7.13 6.31 10.94 14.81 3.81 8.5 3.81 18.37 0 8.63-1.93 15.19-1.94 6.56-5.57 11.44-3.62 4.87-9 8.25-5.37 3.37-12.12 5.62 16.25 5.13 24.25 15.63t8 26.37q0 13.5-5 23.88-5 10.37-13.5 17.44-8.5 7.06-19.69 10.68-11.19 3.63-23.69 3.63-13.62 0-23.75-3.13-10.12-3.12-17.62-9.25-7.5-6.12-12.75-15-5.25-8.87-9-20.5l13.62-5.62q5.38-2.25 10.07-1.19 4.68 1.06 6.81 5.06 2.25 4.38 4.94 8.63 2.68 4.25 6.43 7.56 3.75 3.31 8.82 5.38 5.06 2.06 12.06 2.06 7.87 0 13.75-2.56 5.87-2.57 9.81-6.69 3.94-4.13 5.88-9.19 1.93-5.06 1.93-10.19 0-6.5-1.37-11.81-1.38-5.31-5.75-9.06-4.38-3.75-12.56-5.88-8.19-2.12-21.94-2.12v-22q11.37-.13 18.87-2.13 7.5-2 11.94-5.56 4.44-3.56 6.19-8.56t1.75-11q0-12.75-7.13-19.38-7.12-6.62-19-6.62-5.5 0-10.12 1.56-4.63 1.56-8.31 4.38-3.69 2.81-6.19 6.56-2.5 3.75-3.75 8.25-2.13 5.75-5.56 7.62-3.44 1.88-9.69.88Zm254 37.12q0 23.63-5.06 41.07-5.07 17.43-14 28.81-8.94 11.37-21.13 16.94-12.19 5.56-26.31 5.56-14.13 0-26.19-5.56-12.06-5.57-20.94-16.94-8.87-11.38-13.87-28.81-5-17.44-5-41.07 0-23.75 5-41.12 5-17.38 13.87-28.75 8.88-11.38 20.94-16.94 12.06-5.56 26.19-5.56 14.12 0 26.31 5.56t21.13 16.94q8.93 11.37 14 28.75 5.06 17.37 5.06 41.12Zm-31.88 0q0-19.62-2.87-32.5-2.88-12.87-7.69-20.5-4.81-7.62-11.06-10.68-6.25-3.07-13-3.07-6.63 0-12.81 3.07-6.19 3.06-10.94 10.68-4.75 7.63-7.56 20.5-2.82 12.88-2.82 32.5 0 19.63 2.82 32.5 2.81 12.88 7.56 20.5 4.75 7.63 10.94 10.69 6.18 3.06 12.81 3.06 6.75 0 13-3.06t11.06-10.69q4.81-7.62 7.69-20.5 2.87-12.87 2.87-32.5Zm176.88 0q0 23.63-5.06 41.07-5.07 17.43-14 28.81-8.94 11.37-21.13 16.94-12.19 5.56-26.31 5.56-14.13 0-26.19-5.56-12.06-5.57-20.94-16.94-8.87-11.38-13.87-28.81-5-17.44-5-41.07 0-23.75 5-41.12 5-17.38 13.87-28.75 8.88-11.38 20.94-16.94 12.06-5.56 26.19-5.56 14.12 0 26.31 5.56t21.13 16.94q8.93 11.37 14 28.75 5.06 17.37 5.06 41.12Zm-31.88 0q0-19.62-2.87-32.5-2.88-12.87-7.69-20.5-4.81-7.62-11.06-10.68-6.25-3.07-13-3.07-6.63 0-12.81 3.07-6.19 3.06-10.94 10.68-4.75 7.63-7.56 20.5-2.82 12.88-2.82 32.5 0 19.63 2.82 32.5 2.81 12.88 7.56 20.5 4.75 7.63 10.94 10.69 6.18 3.06 12.81 3.06 6.75 0 13-3.06t11.06-10.69q4.81-7.62 7.69-20.5 2.87-12.87 2.87-32.5Zm176.88 0q0 23.63-5.06 41.07-5.07 17.43-14 28.81-8.94 11.37-21.13 16.94-12.19 5.56-26.31 5.56-14.13 0-26.19-5.56-12.06-5.57-20.94-16.94-8.87-11.38-13.87-28.81-5-17.44-5-41.07 0-23.75 5-41.12 5-17.38 13.87-28.75 8.88-11.38 20.94-16.94 12.06-5.56 26.19-5.56 14.12 0 26.31 5.56t21.13 16.94q8.93 11.37 14 28.75 5.06 17.37 5.06 41.12Zm-31.88 0q0-19.62-2.87-32.5-2.88-12.87-7.69-20.5-4.81-7.62-11.06-10.68-6.25-3.07-13-3.07-6.63 0-12.81 3.07-6.19 3.06-10.94 10.68-4.75 7.63-7.56 20.5-2.82 12.88-2.82 32.5 0 19.63 2.82 32.5 2.81 12.88 7.56 20.5 4.75 7.63 10.94 10.69 6.18 3.06 12.81 3.06 6.75 0 13-3.06t11.06-10.69q4.81-7.62 7.69-20.5 2.87-12.87 2.87-32.5Zm230.38 49-16.37 16.13-42.38-42.38-42.75 42.63-16.37-16.13 42.75-42.87-40.75-40.75 16.25-16.25 40.75 40.75 40.5-40.5 16.5 16.25-40.63 40.62 42.5 42.5Zm131.38-111.37-6.38 37.62q6-1.25 11.5-1.81t10.63-.56q14.25 0 25.12 4.25 10.88 4.25 18.25 11.75 7.38 7.5 11.13 17.56 3.75 10.06 3.75 21.69 0 14.37-5.07 26.25-5.06 11.87-14.06 20.31t-21.31 13.06q-12.31 4.63-26.81 4.63-8.5 0-16.13-1.75-7.62-1.75-14.31-4.69-6.69-2.94-12.38-6.75-5.68-3.81-10.18-8.06l9.5-13.13q3-4.25 7.87-4.25 3.13 0 6.38 2t7.43 4.38q4.19 2.37 9.88 4.37t13.69 2q8.5 0 15-2.75t10.81-7.68q4.31-4.94 6.5-11.75 2.19-6.82 2.19-14.82 0-14.75-8.57-23.06-8.56-8.31-25.31-8.31-12.87 0-26.37 4.75l-19.25-5.5 15-87.75h89.25v13.12q0 6.63-4.13 10.75-4.12 4.13-14 4.13h-49.62Zm226.62 62.37q0 23.63-5.06 41.07-5.06 17.43-14 28.81-8.94 11.37-21.13 16.94-12.18 5.56-26.31 5.56-14.12 0-26.19-5.56-12.06-5.57-20.93-16.94-8.88-11.38-13.88-28.81-5-17.44-5-41.07 0-23.75 5-41.12 5-17.38 13.88-28.75 8.87-11.38 20.93-16.94 12.07-5.56 26.19-5.56 14.13 0 26.31 5.56 12.19 5.56 21.13 16.94 8.94 11.37 14 28.75 5.06 17.37 5.06 41.12Zm-31.87 0q0-19.62-2.88-32.5-2.87-12.87-7.69-20.5-4.81-7.62-11.06-10.68-6.25-3.07-13-3.07-6.62 0-12.81 3.07-6.19 3.06-10.94 10.68-4.75 7.63-7.56 20.5-2.81 12.88-2.81 32.5 0 19.63 2.81 32.5 2.81 12.88 7.56 20.5 4.75 7.63 10.94 10.69 6.19 3.06 12.81 3.06 6.75 0 13-3.06t11.06-10.69q4.82-7.62 7.69-20.5 2.88-12.87 2.88-32.5Zm176.87 0q0 23.63-5.06 41.07-5.06 17.43-14 28.81-8.94 11.37-21.13 16.94-12.18 5.56-26.31 5.56-14.12 0-26.19-5.56-12.06-5.57-20.93-16.94-8.88-11.38-13.88-28.81-5-17.44-5-41.07 0-23.75 5-41.12 5-17.38 13.88-28.75 8.87-11.38 20.93-16.94 12.07-5.56 26.19-5.56 14.13 0 26.31 5.56 12.19 5.56 21.13 16.94 8.94 11.37 14 28.75 5.06 17.37 5.06 41.12Zm-31.87 0q0-19.62-2.88-32.5-2.87-12.87-7.69-20.5-4.81-7.62-11.06-10.68-6.25-3.07-13-3.07-6.62 0-12.81 3.07-6.19 3.06-10.94 10.68-4.75 7.63-7.56 20.5-2.81 12.88-2.81 32.5 0 19.63 2.81 32.5 2.81 12.88 7.56 20.5 4.75 7.63 10.94 10.69 6.19 3.06 12.81 3.06 6.75 0 13-3.06t11.06-10.69q4.82-7.62 7.69-20.5 2.88-12.87 2.88-32.5Z"/></svg>