<svg xmlns="http://www.w3.org/2000/svg" width="800" height="200" viewBox="0 0 800 200"><rect width="100%" height="100%" fill="#DDDDDD"/><path fill="#999999" d="M201 127.3q3.05 0 5.35-.88 2.3-.87 3.87-2.42 1.58-1.55 2.38-3.7.8-2.15.8-4.65 0-5.95-3.3-9t-9.1-3.05q-5.8 0-9.1 3.05t-3.3 9q0 2.5.8 4.65.8 2.15 2.37 3.7 1.58 1.55 3.88 2.42 2.3.88 5.35.88Zm0-54.95q-2.75 0-4.75.85t-3.33 2.27q-1.32 1.43-1.95 3.28-.62 1.85-.62 3.9 0 2.15.52 4.17.53 2.03 1.78 3.6 1.25 1.58 3.3 2.53 2.05.95 5.05.95t5.05-.95q2.05-.95 3.3-2.53 1.25-1.57 1.77-3.6.53-2.02.53-4.17 0-2.05-.65-3.9t-1.95-3.28q-1.3-1.42-3.3-2.27-2-.85-4.75-.85Zm12.2 26.1q6.6 2.15 9.75 6.57 3.15 4.43 3.15 10.83 0 4.8-1.83 8.7-1.82 3.9-5.12 6.65-3.3 2.75-7.93 4.25-4.62 1.5-10.22 1.5-5.6 0-10.23-1.5-4.62-1.5-7.92-4.25t-5.13-6.65q-1.82-3.9-1.82-8.7 0-6.4 3.15-10.83 3.15-4.42 9.75-6.57-5.25-2.2-7.88-6.25-2.62-4.05-2.62-9.75 0-4.1 1.67-7.65 1.68-3.55 4.68-6.18 3-2.62 7.17-4.1 4.18-1.47 9.18-1.47t9.17 1.47q4.18 1.48 7.18 4.1 3 2.63 4.67 6.18 1.68 3.55 1.68 7.65 0 5.7-2.63 9.75-2.62 4.05-7.87 6.25Zm72.3 1.55q0 9.45-2.03 16.42-2.02 6.98-5.6 11.53-3.57 4.55-8.45 6.77-4.87 2.23-10.52 2.23-5.65 0-10.48-2.23-4.82-2.22-8.37-6.77-3.55-4.55-5.55-11.53-2-6.97-2-16.42 0-9.5 2-16.45 2-6.95 5.55-11.5t8.37-6.78q4.83-2.22 10.48-2.22t10.52 2.22q4.88 2.23 8.45 6.78 3.58 4.55 5.6 11.5 2.03 6.95 2.03 16.45Zm-12.75 0q0-7.85-1.15-13t-3.08-8.2q-1.92-3.05-4.42-4.28-2.5-1.22-5.2-1.22-2.65 0-5.13 1.22-2.47 1.23-4.37 4.28-1.9 3.05-3.03 8.2-1.12 5.15-1.12 13t1.12 13q1.13 5.15 3.03 8.2 1.9 3.05 4.37 4.27 2.48 1.23 5.13 1.23 2.7 0 5.2-1.23 2.5-1.22 4.42-4.27 1.93-3.05 3.08-8.2 1.15-5.15 1.15-13Zm70.75 0q0 9.45-2.03 16.42-2.02 6.98-5.6 11.53-3.57 4.55-8.45 6.77-4.87 2.23-10.52 2.23-5.65 0-10.48-2.23-4.82-2.22-8.37-6.77-3.55-4.55-5.55-11.53-2-6.97-2-16.42 0-9.5 2-16.45 2-6.95 5.55-11.5t8.37-6.78q4.83-2.22 10.48-2.22t10.52 2.22q4.88 2.23 8.45 6.78 3.58 4.55 5.6 11.5 2.03 6.95 2.03 16.45Zm-12.75 0q0-7.85-1.15-13t-3.08-8.2q-1.92-3.05-4.42-4.28-2.5-1.22-5.2-1.22-2.65 0-5.13 1.22-2.47 1.23-4.37 4.28-1.9 3.05-3.03 8.2-1.12 5.15-1.12 13t1.12 13q1.13 5.15 3.03 8.2 1.9 3.05 4.37 4.27 2.48 1.23 5.13 1.23 2.7 0 5.2-1.23 2.5-1.22 4.42-4.27 1.93-3.05 3.08-8.2 1.15-5.15 1.15-13Zm92.15 19.6-6.55 6.45-16.95-16.95-17.1 17.05-6.55-6.45 17.1-17.15-16.3-16.3 6.5-6.5 16.3 16.3 16.2-16.2 6.6 6.5-16.25 16.25 17 17Zm60.2 5.05h18.55q2 0 3.17 1.12 1.18 1.13 1.18 2.98v7.4h-49.6v-4.1q0-1.25.52-2.63.53-1.37 1.68-2.47l21.95-22q2.75-2.8 4.92-5.35 2.18-2.55 3.63-5.05 1.45-2.5 2.22-5.08.78-2.57.78-5.42 0-2.6-.75-4.58-.75-1.97-2.13-3.32-1.37-1.35-3.29-2.03-1.93-.67-4.33-.67-2.2 0-4.08.62-1.87.63-3.32 1.75-1.45 1.13-2.45 2.63-1 1.5-1.5 3.3-.85 2.3-2.2 3.05t-3.9.35l-6.5-1.15q.75-5.2 2.9-9.13 2.15-3.92 5.37-6.55 3.23-2.62 7.4-3.95 4.18-1.32 8.98-1.32 5 0 9.15 1.47 4.15 1.48 7.1 4.18 2.95 2.7 4.6 6.5 1.65 3.8 1.65 8.45 0 4-1.18 7.4-1.17 3.4-3.15 6.5-1.97 3.1-4.62 6-2.65 2.9-5.55 5.9L474 126.1q2.35-.7 4.68-1.08 2.32-.37 4.42-.37Zm83-24.65q0 9.45-2.03 16.42-2.02 6.98-5.6 11.53-3.57 4.55-8.45 6.77-4.87 2.23-10.52 2.23-5.65 0-10.48-2.23-4.82-2.22-8.37-6.77-3.55-4.55-5.55-11.53-2-6.97-2-16.42 0-9.5 2-16.45 2-6.95 5.55-11.5t8.37-6.78q4.83-2.22 10.48-2.22t10.52 2.22q4.88 2.23 8.45 6.78 3.58 4.55 5.6 11.5 2.03 6.95 2.03 16.45Zm-12.75 0q0-7.85-1.15-13t-3.08-8.2q-1.92-3.05-4.42-4.28-2.5-1.22-5.2-1.22-2.65 0-5.13 1.22-2.47 1.23-4.37 4.28-1.9 3.05-3.03 8.2-1.12 5.15-1.12 13t1.12 13q1.13 5.15 3.03 8.2 1.9 3.05 4.37 4.27 2.48 1.23 5.13 1.23 2.7 0 5.2-1.23 2.5-1.22 4.42-4.27 1.93-3.05 3.08-8.2 1.15-5.15 1.15-13Zm70.75 0q0 9.45-2.03 16.42-2.02 6.98-5.6 11.53-3.57 4.55-8.45 6.77-4.87 2.23-10.52 2.23-5.65 0-10.48-2.23-4.82-2.22-8.37-6.77-3.55-4.55-5.55-11.53-2-6.97-2-16.42 0-9.5 2-16.45 2-6.95 5.55-11.5t8.37-6.78q4.83-2.22 10.48-2.22t10.52 2.22q4.88 2.23 8.45 6.78 3.58 4.55 5.6 11.5 2.03 6.95 2.03 16.45Zm-12.75 0q0-7.85-1.15-13t-3.08-8.2q-1.92-3.05-4.42-4.28-2.5-1.22-5.2-1.22-2.65 0-5.13 1.22-2.47 1.23-4.37 4.28-1.9 3.05-3.03 8.2-1.12 5.15-1.12 13t1.12 13q1.13 5.15 3.03 8.2 1.9 3.05 4.37 4.27 2.48 1.23 5.13 1.23 2.7 0 5.2-1.23 2.5-1.22 4.42-4.27 1.93-3.05 3.08-8.2 1.15-5.15 1.15-13Z"/></svg>